<?xml version="1.0" encoding="UTF-8"?>
<svg id="Layer_1" data-name="Layer 1" xmlns="http://www.w3.org/2000/svg" viewBox="0 0 686.85 639.96" aria-hidden="true" role="img">
  <defs>
    <style>
      .cls-1 {
        fill: #000000;
      }
    </style>
    <clipPath id="frog-overlay-clip">
      <path d="M95.21,639.96c-4.86,0-8.91-1.47-12.14-4.39-3.24-2.94-4.86-6.46-4.86-10.6,0-6.2,1.62-10.26,4.86-12.15,3.23-1.9,6.31-2.85,9.23-2.85h3.89c.65-.69,1.86-1.73,3.64-3.1,1.77-1.38,3.32-2.58,4.61-3.61l-.49-2.07-59.26,10.85c-1.3,1.37-3.57,3.02-6.8,4.92-3.24,1.89-7.29,2.84-12.14,2.84-4.54,0-9.07-1.38-13.6-4.13-4.54-2.77-6.8-7.24-6.8-13.45,0-5.17,2.02-9.74,6.07-13.7,4.05-3.96,8.5-5.94,13.36-5.94,4.53,0,8.5.43,11.9,1.29,3.4.85,5.59,2.33,6.56,4.4l39.83-5.17.49-1.55-21.86-4.13c-2.91,2.41-8.26,3.62-16.03,3.62-4.86,0-9.07-1.55-12.63-4.65-3.57-3.1-5.34-7.41-5.34-12.92,0-5.87,2.18-10.6,6.56-14.22,4.37-3.61,8.66-5.43,12.87-5.43,11.33,0,18.78,4.99,22.34,14.99l28.66,9.31.49-2.07-6.8-4.13c-2.91,0-6.48-.86-10.69-2.58-4.21-1.73-6.32-5.69-6.32-11.89,0-4.48,1.29-8.1,3.89-10.85,2.59-2.77,6.47-4.14,11.66-4.14,5.83,0,10.03,1.72,12.63,5.17,2.59,3.44,3.89,6.89,3.89,10.34l14.09,11.89,46.15,3.61c4.86,0,8.74-.7,11.66-2.07,1.62-.69,3.56-3.61,5.83-8.78,2.26-5.17,4.69-11.29,7.29-18.35,2.59-7.07,4.53-13.18,5.83-18.34,1.62-5.86,3.32-12.75,5.1-20.68,1.78-7.93,3.48-15.51,5.1-22.75,1.62-7.24,2.59-12.41,2.91-15.51-.32-.69-.48-2.41-.48-5.17l-.49.51c-7.77-8.61-16.51-18.78-26.23-30.5-9.71-11.71-18.87-23.43-27.45-35.14-8.58-11.71-15.14-21.88-19.67-30.5-3.24-6.2-7.21-15.16-11.9-26.88-4.7-11.71-9.64-24.98-14.81-39.8-5.18-14.81-10.2-29.8-15.06-44.97-4.86-15.16-9.23-29.29-13.11-42.39-3.57-3.1-8.02-7.15-13.36-12.15-5.34-4.99-10.61-10.42-15.79-16.28-5.18-5.86-9.4-11.37-12.63-16.54-3.57-6.2-7.61-13.44-12.14-21.71-4.54-8.27-8.91-16.54-13.12-24.81-4.21-8.27-7.94-15.33-11.17-21.19-1.62-3.1-2.43-6.2-2.43-9.31,0-2.07.49-4.39,1.46-6.98.97-2.58,1.94-4.56,2.91-5.95-1.3-1.72-2.51-4.22-3.64-7.49-1.14-3.27-1.7-6.98-1.7-11.11,0-7.58,3.4-15.07,10.2-22.49,6.8-7.41,15.38-13.61,25.74-18.61C46.31,2.5,56.67,0,67.03,0c5.18,0,12.46.78,21.86,2.33,9.39,1.55,19.26,3.54,29.63,5.94,10.36,2.42,19.75,4.65,28.17,6.72,1.94-1.72,5.83-4.31,11.66-7.75,5.83-3.44,13.12-5.17,21.86-5.17,10.36,0,18.62,4.39,24.77,13.18,6.15,8.79,10.36,17.49,12.63,26.1,2.91,1.38,8.17,4.31,15.79,8.79,7.6,4.48,14.97,8.97,22.1,13.44,5.5,3.45,12.39,7.32,20.64,11.63,8.26,4.31,16.92,8.36,25.99,12.15,9.06,3.8,17.49,6.72,25.26,8.79,5.83,1.38,15.3,4.23,28.42,8.53,13.12,4.31,27.76,9.74,43.96,16.29,16.19,6.55,32.13,14.3,47.84,23.26,15.7,8.97,29.39,18.96,41.05,29.98,11.33,10.69,24.05,23.44,38.13,38.25,14.09,14.82,27.93,30.07,41.53,45.75,13.6,15.68,25.66,30.24,36.19,43.68,10.52,13.44,18.22,24.29,23.07,32.57,10.69,17.93,19.75,36.79,27.2,56.6,7.45,19.82,13.52,39.11,18.22,57.89,4.69,18.79,8.17,35.93,10.44,51.44,2.26,15.51,3.4,27.91,3.4,37.21s-.81,17.75-2.43,26.36c-1.62,8.61-4.7,16.88-9.23,24.82-4.86,8.27-10.69,13.87-17.49,16.8-6.8,2.93-11.66,4.74-14.57,5.43-3.89,6.89-9.31,11.88-16.27,14.99-6.97,3.1-13.2,4.64-18.7,4.64-4.54,0-12.23-.77-23.07-2.32-10.85-1.55-20.49-3.02-28.9-4.39l-82.58-14.48c-2.27-.34-4.86-.7-7.77-1.03-2.91-.35-6.64-.51-11.17-.51-1.94,0-5.02.16-9.23.51-4.21.33-9.23,1.54-15.06,3.61l-14.09,11.89c-.33,1.72-2.11,4.3-5.34,7.75-3.24,3.44-7.29,4.99-12.14,4.65-4.86-.7-8.74-2.68-11.66-5.95-2.91-3.28-4.21-6.98-3.89-11.12.65-6.2,2.59-10.08,5.83-11.63,3.23-1.55,6.31-2.16,9.23-1.81.97,0,1.78.08,2.43.25.65.17,1.13.26,1.46.26.97-.7,2.43-1.65,4.37-2.85,1.94-1.21,3.56-2.16,4.86-2.84l-.49-2.06-60.23,4.65c-1.3,1.37-3.64,2.76-7.04,4.13-3.4,1.37-7.53,1.9-12.39,1.55-4.54-.7-8.91-2.58-13.12-5.68-4.21-3.11-6.15-7.76-5.83-13.96.65-5.17,3.16-9.56,7.53-13.18,4.37-3.62,8.99-5.09,13.84-4.4,10.36.69,16.35,3.27,17.97,7.75l39.83-1.03.49-2.07-20.89-5.68c-3.24,2.07-8.74,2.58-16.51,1.55-3.89-.35-7.29-1.64-10.2-3.88-2.91-2.25-4.7-5.43-5.34-9.57-8.74-3.44-20.64-9.74-35.7-18.86-15.06-9.13-29.23-22.14-42.5-39.03-2.91,9.3-7.04,19.56-12.39,30.75-5.34,11.2-10.93,21.97-16.76,32.31-5.83,10.34-11.17,19.21-16.03,26.62s-8.26,11.97-10.2,13.7l-80.63,8.79-13.12,12.4c-.32,2.07-1.94,5-4.86,8.79-2.91,3.79-6.8,5.68-11.66,5.68Z" />
    </clipPath>
  </defs>
  <text
    class="cls-1"
    clip-path="url(#frog-overlay-clip)"
    x="343.425"
    y="319.98"
    text-anchor="middle"
    dominant-baseline="middle"
    font-size="620"
    textLength="686.85"
    lengthAdjust="spacingAndGlyphs"
    font-family="Segoe UI Symbol, Noto Sans Symbols 2, Noto Sans Symbols, Apple Symbols, sans-serif"
  >𓆏</text>
</svg>
